<svg version="1" xmlns="http://www.w3.org/2000/svg" width="933.333" height="933.333" viewBox="0 0 700.000000 700.000000"><path d="M322.5 53.6C303.6 57 283.2 65.5 269 76c-8.2 6.1-20.2 18.5-26.4 27.2-22.6 32.1-28.3 76-14.7 114.8 10.2 29.3 33.1 54.7 61.1 68 4.8 2.3 17 6.9 19.8 7.5.9.2 4 .9 6.7 1.5 8.5 2 14.5 2.5 28.5 2.5 12 0 24.3-1 26-2 .4-.2 1.7-.6 3.1-.9 12.3-2.3 32.8-11.7 44.3-20.2 19-14.1 33.3-33.1 41.5-55.4 8-21.9 9.8-50 4.5-72.6-8.2-35.7-31.8-65.9-63.4-81.2-13.7-6.6-21.6-9.2-36-11.8-6.7-1.3-34-1.1-41.5.2zM107.5 230.6c-13.8 1.9-23.4 4.8-34.5 10.3-29.6 14.7-49.9 41.2-57.7 75.1-2.1 9.3-2.5 32.6-.6 42.5.8 4.4 1.7 9.5 2 11.3.3 1.8.9 3.5 1.4 3.8.5.3.9 1.2.9 2.1 0 3.1 7.1 17.7 12.5 25.9 5.9 8.8 16.1 19.9 23 25 2.2 1.6 4.2 3.1 4.5 3.4.9 1 10.4 6.4 16 9.1 23.3 11.1 51.8 13.4 79.2 6.3 10.8-2.7 29-11.7 36.9-18.1 23-18.8 36.4-41.8 40.9-70.7 1.1-7.1 1.4-25.7.5-31.1-2.2-13-3.1-17-5.7-24-8.9-24.5-24.6-43.8-46.5-56.8-20.5-12.3-47.9-17.6-72.8-14.1zM501.5 282.1c-21.3 2.1-40 7.3-59.1 16.5-9.7 4.6-29.6 17.4-34.3 22.1-1.5 1.5-4.8 4.6-7.2 6.9-21.3 20-36.9 46.6-44.9 76.9-2.9 10.9-2.9 11-5 27-.8 6.2-.5 36.4.3 40.2.3 1.1.9 4.3 1.2 7 1.1 7.5 5.1 23 8.4 31.8 8.6 23.4 20.8 42.3 39 60.3 5.3 5.2 10.7 10.2 12.1 11 1.4.9 4.3 3 6.5 4.8 16.3 12.7 47.4 25.6 69.6 28.9 2.4.4 6.3 1 8.7 1.5 4.5.8 39.7.6 44.2-.2 1.4-.3 4.8-.9 7.5-1.3 24.8-3.6 52-15.3 73.8-31.7 32.7-24.8 56-64.1 62.3-105.3.4-2.8.9-5.7 1.1-6.5 1.2-4.4 1-36.4-.3-45.5-9-63.9-48.6-113.7-107.3-134.9-7.7-2.8-24.1-7.1-30.6-8-2.2-.3-6-.8-8.5-1.2-6.6-.9-29.4-1.1-37.5-.3zM231.5 454.3c-43 4.2-75 38.3-75.7 80.8-.7 41.4 23.3 73.8 62.7 84.5 8.4 2.3 29.9 2.7 39 .7 29.2-6.2 52.2-26.2 61.6-53.7 3.8-10.9 4.8-18.7 4.4-32.6-.7-21.9-7.9-39-22.9-54.9-17.3-18.1-43.1-27.4-69.1-24.8z"/></svg>